<?xml version="1.0" encoding="UTF-8" standalone="no"?>
<svg width="60px" height="60px" viewBox="0 0 60 60" version="1.1" xmlns="http://www.w3.org/2000/svg" xmlns:xlink="http://www.w3.org/1999/xlink">
    <!-- Generator: Sketch 39.1 (31720) - http://www.bohemiancoding.com/sketch -->
    <title>SP_icon</title>
    <desc>Created with Sketch.</desc>
    <defs></defs>
    <g id="Welcome" stroke="none" stroke-width="1" fill="none" fill-rule="evenodd">
        <g id="V1-Mobile-Portrait" transform="translate(-130.000000, -24.000000)">
            <g id="SP_icon" transform="translate(130.000000, 24.000000)">
                <path d="M59.512939,30.001125 C59.512939,53.8472307 53.4087045,60 29.7564695,60 C6.10423451,60 0,53.8472307 0,30.001125 C0,6.15426921 6.10423451,0 29.7564695,0 C53.4087045,0 59.512939,6.15426921 59.512939,30.001125 Z" id="Shape" fill="#FFFFFF"></path>
                <path d="M29.6939348,39.7420904 C26.8344485,39.7420904 22.9389165,39.1836095 22.0271962,36.2193648 C21.7785452,35.3172034 21.0740341,34.8016826 20.2037557,34.8016826 C19.1677099,34.8016826 18.0487805,35.5320038 18.0487805,36.6919256 C18.0487805,39.3124897 21.1569178,42.9640955 27.7876106,43.5655365 L27.7876106,45.0691389 C27.7876106,46.400901 28.7407727,47.0023419 29.652493,47.0023419 C30.6470969,47.0023419 31.600259,46.3579409 31.600259,45.0691389 L31.600259,43.5655365 C36.2003022,43.1359358 41.4634146,40.9449723 41.4634146,35.2312833 C41.4634146,24.2335059 22.4830563,31.0641567 22.4830563,24.5771864 C22.4830563,21.4840615 27.0002158,20.3241397 29.3624002,20.3241397 C31.9317937,20.3241397 35.6615584,20.7967004 36.6976041,23.4602246 C36.987697,24.1905458 37.7750917,24.5342263 38.438161,24.5342263 C39.5156486,24.5342263 40.5102525,23.7179851 40.5102525,22.5580632 C40.5102525,21.0115008 38.2723937,17.3169349 31.600259,16.5866138 L31.600259,15.2978117 C31.600259,13.9230895 30.6885387,13.2786885 29.7353766,13.2786885 C28.7822145,13.2786885 27.7876106,13.9230895 27.7876106,15.2978117 L27.7876106,16.5436537 C23.2290093,16.9732544 18.3388733,19.5078984 18.3388733,24.5342263 C18.3388733,35.703844 37.3192316,29.0020734 37.3192316,35.2742434 C37.3192316,38.7110488 32.7191884,39.7420904 29.6939348,39.7420904 Z" id="$" fill="#B30077"></path>
            </g>
        </g>
    </g>
</svg>